<svg width="300" height="22" viewBox="0 0 300 22" fill="none" xmlns="http://www.w3.org/2000/svg">
<path d="M4.38 21V13.8H10.95C13.62 13.8 15.36 13.08 16.59 11.91C17.73 10.8 18.45 9.3 18.45 7.59C18.45 6.09 17.88 4.71 16.86 3.57C15.57 2.19 13.71 1.41 10.95 1.41H0.0900002V21H4.38ZM11.1 5.04C11.88 5.04 12.75 5.16 13.41 5.85C13.86 6.33 14.13 6.93 14.13 7.62C14.13 8.28 13.83 8.94 13.35 9.42C12.69 10.05 11.85 10.17 11.1 10.17H4.38V5.04H11.1ZM26.7042 21V13.8H32.5242L36.4842 21H41.4042L36.8142 13.11C39.2142 12.06 40.7742 10.11 40.7742 7.59C40.7742 6.03 40.1742 4.62 39.1542 3.54C37.8942 2.22 36.0642 1.41 33.2742 1.41H22.4142V21H26.7042ZM33.4242 5.04C34.2042 5.04 35.0742 5.13 35.7642 5.88C36.2142 6.33 36.4542 6.93 36.4542 7.59C36.4542 9.09 35.2242 10.17 33.7242 10.17H26.7042V5.04H33.4242ZM57.3424 8.94H50.1124V5.13H62.1424V1.41H45.8224V21H62.8324V17.31H50.1124V12.63H57.3424V8.94ZM64.8405 5.13H71.9505V21H76.2405V5.13H83.3205V1.41H64.8405V5.13ZM84.8796 5.13H91.9896V21H96.2796V5.13H103.36V1.41H84.8796V5.13ZM119.079 1.41L114.339 8.22L109.569 1.41H104.229L112.029 12.06V21H116.349V12.06L124.119 1.41H119.079ZM138.355 21V12.78H145.585V9.09H138.355V5.13H150.235V1.41H134.065V21H138.355ZM148.942 21H153.472L155.242 16.86H164.302L166.102 21H170.812L161.722 1.41H158.032L148.942 21ZM159.682 6.54H159.862L162.832 13.47H156.712L159.682 6.54ZM186.35 21C189.02 21 190.49 20.37 191.69 19.23C192.92 18.03 193.52 16.59 193.52 15.03C193.52 12.75 192.29 10.95 190.01 10.17C191.45 9.42 192.47 7.92 192.47 6.24C192.47 5.13 192.02 4.11 191.24 3.3C190.16 2.16 188.42 1.41 185.99 1.41H174.26V21H186.35ZM186.2 12.51C187.13 12.51 187.82 12.81 188.36 13.35C188.78 13.8 189.05 14.37 189.05 15C189.05 15.63 188.78 16.26 188.36 16.71C187.85 17.19 187.1 17.46 186.2 17.46H178.58V12.51H186.2ZM185.48 4.98C186.44 4.98 187.01 5.19 187.43 5.64C187.79 6 188.03 6.48 188.03 7.05C188.03 7.65 187.79 8.22 187.37 8.64C186.92 9.09 186.29 9.27 185.48 9.27H178.58V4.98H185.48ZM218.878 1.41V13.56H218.848L208.858 1.41H205.168V21H209.488V8.88H209.518L219.478 21H223.198V1.41H218.878ZM226.637 21H231.167L232.937 16.86H241.997L243.797 21H248.507L239.417 1.41H235.727L226.637 21ZM237.377 6.54H237.557L240.527 13.47H234.407L237.377 6.54ZM256.245 21V1.41H251.955V21H256.245ZM262.414 1.41V21H278.224V17.31H266.704V1.41H262.414ZM298.217 3.45C296.537 2.31 293.087 0.809999 289.007 0.809999C285.317 0.809999 280.907 2.28 280.907 7.02C280.907 12 285.947 12.48 290.237 12.75C293.177 12.99 295.187 13.41 295.187 15.3C295.187 17.13 293.207 18.09 290.717 18.09C286.757 18.09 283.967 16.11 282.317 14.79L279.887 17.73C282.167 19.59 285.587 21.6 290.657 21.6C295.457 21.6 299.477 19.71 299.477 14.88C299.477 9.48 293.897 9.06 290.327 8.82C287.777 8.61 285.197 8.49 285.197 6.75C285.197 5.07 286.937 4.35 288.887 4.35C292.127 4.35 294.587 5.58 295.757 6.45L298.217 3.45Z" fill="#FB5E73"/>
</svg>
